<?xml version="1.0" encoding="utf-8"?>
<!DOCTYPE svg PUBLIC "-//W3C//DTD SVG 1.0//EN" "http://www.w3.org/TR/2001/REC-SVG-20010904/DTD/svg10.dtd">
<svg version="1.0" xmlns="http://www.w3.org/2000/svg" viewBox="440 520 1120 1000" preserveAspectRatio="xMidYMid meet">
 <g fill="#38bdf8">
  <path d="M1430.5 1431.3 c-3.3 -0.8 -6.2 -4.1 -15.7 -18.3 -5.1 -7.4 -10.6 -15.5 -12.3 -18 -1.7 -2.5 -6.1 -8.8 -9.7 -14 -3.6 -5.2 -10.2 -14.9 -14.8 -21.5 -4.6 -6.6 -14.7 -21.4 -22.5 -33 -15.9 -23.5 -35.3 -51.7 -38.2 -55.5 -1.1 -1.4 -9.8 -14.2 -19.5 -28.5 -9.6 -14.3 -20.4 -30.3 -24 -35.5 -3.5 -5.2 -12.7 -18.7 -20.3 -30 -15.3 -22.6 -25.6 -37.8 -35.1 -51.5 -3.5 -4.9 -11.1 -16.2 -17.1 -25 -5.9 -8.7 -18.2 -26.7 -27.2 -40 -9.1 -13.2 -21.6 -31.6 -27.9 -41 -6.3 -9.3 -19.2 -28.4 -28.6 -42.2 -9.4 -13.9 -22.5 -33.3 -29.1 -43 -30.4 -44.9 -37.4 -55.2 -41 -60.3 -2.2 -3 -8.5 -12.2 -14.1 -20.5 -5.5 -8.2 -12.1 -17.8 -14.5 -21.3 l-4.5 -6.3 -202.6 0 -202.7 -0.1 -3.1 -5.1 c-2.9 -4.7 -19.5 -31.5 -35.5 -57.2 -20.1 -32.3 -32.2 -51.6 -40.3 -63.9 -5 -7.7 -8.9 -14.3 -8.7 -14.6 0.4 -0.6 601.5 -0.7 611.6 -0.1 2 0.1 3.4 1.4 6.1 5.3 1.8 2.9 9.4 14.1 16.8 24.8 7.3 10.7 16.1 23.6 19.5 28.5 27.6 40.7 50.3 73.9 65.1 95.5 9.6 14 21.8 31.9 27 39.8 5.3 7.8 10.2 14.2 10.9 14.2 0.8 0 1.7 -1 2 -2.2 0.4 -1.1 4.7 -8 9.5 -15.2 4.8 -7.2 16.7 -25.2 26.4 -40.1 9.8 -14.8 23.7 -36 31 -47 7.3 -11 14.5 -22 16 -24.5 1.4 -2.5 4.4 -7 6.5 -10 2.1 -3 14.1 -21 26.6 -40 12.5 -19 24.1 -36.3 25.7 -38.5 3.2 -4.5 12.3 -18.2 21.7 -32.7 3.5 -5.4 6.9 -9.8 7.5 -9.8 1.2 0 9.8 11.7 11.1 15.1 0.3 0.9 -0.8 3.3 -2.8 6 -3.6 4.7 -15.3 21.1 -23.2 32.4 -2.7 3.9 -8.7 12.4 -13.5 19 -4.8 6.6 -15.4 21.4 -23.6 32.9 -8.2 11.5 -18.7 26.2 -23.4 32.7 -8.7 12 -33.8 46.9 -42.6 59.3 -25.8 36.2 -38.6 54.4 -43.1 61.6 -1.9 3 -4.4 6.5 -5.5 7.7 l-2 2.2 4.3 5.7 c2.4 3.2 4.9 5.9 5.4 6.1 0.6 0.1 5.8 -7.5 11.7 -17 5.8 -9.4 13.1 -20.8 16.2 -25.2 3.1 -4.4 11.4 -16.8 18.5 -27.5 7 -10.7 18.6 -28.2 25.7 -38.8 7.1 -10.7 17 -25.8 21.9 -33.6 8.6 -13.6 18 -27.9 30.8 -47.1 34.3 -51.3 48 -71.5 48.5 -71.5 0.7 0 8.8 12.4 10.6 16.1 0.7 1.4 -0.1 3.1 -3.5 7.6 -2.4 3.1 -6.4 8.7 -8.9 12.4 -2.5 3.6 -6.6 9.5 -9.2 13 -2.6 3.5 -9.2 12.7 -14.7 20.4 -5.6 7.7 -17.2 23.8 -25.8 35.9 -8.7 12 -20.5 28.7 -26.3 37.1 -5.8 8.3 -14.5 20.7 -19.5 27.4 -4.9 6.7 -9.7 13.2 -10.5 14.4 -0.8 1.3 -4.2 6 -7.5 10.6 -3.3 4.6 -6.9 9.6 -8 11.1 -2.4 3.4 -24.7 35 -33.5 47.5 -3.4 5 -7.6 10.5 -9.2 12.3 -1.6 1.9 -2.5 3.8 -2.1 4.5 3 5.2 8.5 12.7 9.1 12.3 0.4 -0.2 5.7 -8.1 11.7 -17.6 6.1 -9.4 18.5 -28.5 27.6 -42.3 9.1 -13.9 22.7 -34.6 30.3 -46.2 7.6 -11.5 16.1 -24.4 19 -28.6 2.8 -4.1 8.5 -12.7 12.6 -19 16.2 -24.9 46.9 -71.4 58.9 -89.2 12.1 -18.2 12.6 -18.8 14.1 -16.7 3.7 5.3 9 14.5 9 15.5 0 0.6 -2.3 4.3 -5 8.1 -2.8 3.8 -7.8 11 -11.2 15.9 -3.3 5 -7.3 10.6 -8.8 12.5 -1.5 1.9 -5.5 7.6 -8.8 12.5 -9.2 13.6 -18.2 26.3 -35.1 49.7 -8.5 11.7 -19.7 27.4 -24.9 34.8 -5.2 7.4 -13.2 18.4 -17.7 24.5 -4.5 6 -11.8 16.2 -16.1 22.5 -4.3 6.4 -10.5 15.2 -13.7 19.5 -7.6 10.5 -20.2 28.4 -29.3 41.6 l-7.3 10.6 4 5.9 c2.2 3.2 4.3 6 4.7 6.1 0.8 0.3 9.9 -12.5 17.5 -24.5 13.2 -20.8 20.9 -32.8 44.4 -68.4 13.8 -21.1 29.8 -45.5 35.6 -54.3 12.7 -19.5 35.1 -53.6 54.2 -82.5 7.8 -11.8 15.5 -23.6 17.1 -26.2 1.6 -2.7 3.1 -4.8 3.4 -4.8 0.4 0 3.2 3.9 6.3 8.6 6.6 9.9 6.9 7.8 -2.8 20.9 -5.1 6.9 -15.6 21.7 -18.5 25.9 -0.7 1.1 -6.8 9.7 -13.5 19 -6.6 9.3 -15.4 21.7 -19.5 27.7 -9.6 13.8 -34.9 49.2 -43 60.2 -1.4 1.9 -6.5 9.2 -11.4 16.3 -5 7.1 -11.5 16.3 -14.6 20.4 -3.1 4.1 -10.2 14 -15.7 22 -5.5 8 -15.1 21.7 -21.3 30.5 -6.2 8.8 -11.5 16.5 -11.7 17.2 -0.6 1.5 6.8 12.3 8.4 12.3 0.6 0 3.7 -3.7 6.8 -8.3 9.3 -13.6 38 -58 41.5 -64.3 1.9 -3.3 5.7 -9 8.5 -12.9 2.8 -3.8 7.3 -10.6 10 -15 2.7 -4.4 10.8 -16.9 18 -27.7 7.1 -10.9 17.3 -26.4 22.6 -34.5 5.3 -8.2 21.1 -32.2 35.2 -53.5 14 -21.2 26 -39.6 26.6 -40.7 0.7 -1.2 1.6 -2.1 2 -2.1 1.1 0 11.1 16 11.1 17.6 0 0.6 -2.2 4 -4.8 7.5 -2.7 3.5 -7.2 9.8 -10 13.9 -2.8 4.1 -8.5 12.2 -12.6 18 -4.2 5.8 -10.2 14.4 -13.5 19.2 -3.3 4.8 -8.4 11.8 -11.3 15.5 -6.4 8.2 -14.5 19.5 -26 36.3 -10.2 15 -19.5 28.2 -31.7 45 -18.2 25.2 -41.8 58.6 -48.5 69 -2.7 4.1 -8 11.9 -11.8 17.2 l-6.9 9.7 4.3 6.5 c2.4 3.6 4.8 6.4 5.3 6.3 0.6 -0.2 2.4 -2.5 4 -5.1 3 -4.7 13.3 -20.8 30.8 -48.1 4.9 -7.7 12 -18.5 15.7 -24 3.7 -5.5 9.7 -14.9 13.5 -21 3.7 -6 9.1 -14.6 12 -19 2.9 -4.4 8.7 -13.4 13 -20 9.9 -15.3 40.5 -61.7 66.9 -101.8 7.6 -11.4 14.2 -20.5 14.7 -20.1 1.4 0.8 9.9 15.6 9.9 17.2 0 0.8 -6.9 10.9 -15.3 22.6 -14 19.2 -27.5 38.3 -55.2 77.8 -5.5 7.8 -14.5 20.5 -20 28.1 -11.6 16.1 -17.1 23.9 -35.6 50.7 -7.5 10.7 -18 25.8 -23.4 33.5 -5.4 7.7 -13.3 19 -17.6 25.2 -4.4 6.2 -7.9 11.8 -7.9 12.4 0 1.8 8 12.1 9.1 11.7 0.5 -0.2 2.4 -2.7 4.2 -5.6 1.7 -2.9 7.1 -11 11.8 -18 4.8 -7 13.1 -19.7 18.6 -28.2 5.5 -8.5 15.1 -23.4 21.3 -33 6.1 -9.6 13.7 -21.1 16.7 -25.5 3 -4.4 6 -9 6.6 -10.2 1.9 -3.6 18.3 -29 30 -46.6 6 -8.9 12.1 -18.1 13.5 -20.5 15 -24 45 -69.2 46 -69.2 1.1 0 8.2 16.2 8.2 18.7 0 1.2 -1.1 3.4 -2.4 5 -1.3 1.5 -9.5 12.9 -18.2 25.3 -22.1 31.2 -25.8 36.6 -30.1 43.5 -2 3.3 -5.9 9 -8.7 12.7 -2.8 3.6 -7.3 9.9 -10.1 13.8 -2.7 4 -9.4 13.4 -14.8 20.9 -5.3 7.5 -12.6 17.9 -16.2 23.1 -3.6 5.2 -12 17.5 -18.8 27.2 -6.7 9.7 -15.3 22.2 -19.2 27.8 -3.8 5.6 -8.6 12.4 -10.5 15.1 -1.9 2.7 -5.5 7.8 -8 11.4 -2.5 3.6 -6.9 9.9 -9.8 14 -6.3 8.7 -7 6.2 7.3 26.5 5.7 8 13.8 19.7 18.1 26.1 4.4 6.3 15.6 22.7 24.9 36.3 25.7 37.4 52.5 76.5 63.1 92.1 5.2 7.7 13.2 19.4 17.7 26 26 37.7 35.7 52.5 35.7 54.3 0 3.9 -22.3 47.9 -33.7 66.7 -13.3 21.7 -35.4 50 -53.8 68.6 -13.6 13.8 -17.1 15.9 -24 14.2z"/>
  <path d="M519 1370.1 c0 -0.5 10.2 -16.1 22.7 -34.7 32.9 -49.2 77.9 -116.2 86.1 -128.4 6.6 -9.8 39.1 -58.8 61.1 -92 5.3 -7.9 16.3 -24.4 24.4 -36.5 8.1 -12.1 34.5 -51.6 58.5 -87.7 l43.7 -65.7 92.7 -0.1 92.7 0 -8.4 12.3 c-4.6 6.7 -26.6 39.4 -48.9 72.7 -22.3 33.3 -46.4 69.3 -53.5 80 -16.2 24.1 -17.5 26.2 -57.7 86.5 -18 27 -32.9 49.6 -33.1 50.3 -0.4 0.9 25 1.2 124.8 1.2 69 0 125.9 -0.4 126.4 -0.8 0.6 -0.4 1.9 -2 3.1 -3.7 21.6 -31.1 35.9 -51.7 40.9 -59 12.4 -18.2 38.6 -56.1 40.3 -58.3 l1.7 -2.3 5.2 7.8 c5.2 8 27.9 40.5 59.8 85.8 9.9 14.1 20.4 28.9 23.3 33 2.8 4.2 5.2 7.9 5.2 8.5 0 0.5 -2.1 3.7 -4.8 7.2 -2.6 3.5 -8.7 12.2 -13.5 19.3 -4.8 7.2 -11.6 17.1 -15 22 -3.5 5 -10.3 14.9 -15.2 22 -4.9 7.2 -12.1 17.5 -16 23 -3.9 5.5 -11.3 16.4 -16.5 24.3 l-9.4 14.2 -310.3 0 c-179 0 -310.3 -0.4 -310.3 -0.9z"/>
 </g>
</svg>
